<!DOCTYPE svg PUBLIC "-//W3C//DTD SVG 1.1//EN" "http://www.w3.org/Graphics/SVG/1.1/DTD/svg11.dtd">
<!-- Uploaded to: SVG Repo, www.svgrepo.com, Transformed by: SVG Repo Mixer Tools -->
<svg fill="#586C5E" height="800px" width="800px" version="1.1" id="Layer_1" xmlns="http://www.w3.org/2000/svg" xmlns:xlink="http://www.w3.org/1999/xlink" viewBox="0 0 512.001 512.001" xml:space="preserve" transform="rotate(270)">
<g id="SVGRepo_bgCarrier" stroke-width="0"/>
<g id="SVGRepo_tracerCarrier" stroke-linecap="round" stroke-linejoin="round"/>
<g id="SVGRepo_iconCarrier"> <g> <g> <path d="M111.732,111.733C71.079,152.386,41.053,197.055,22.489,244.5C7.559,282.657-0.008,322.618,0,363.273 c0.009,51.511,12.144,90.79,18.775,108.41l107.228-107.228V98.057C121.195,102.475,116.436,107.029,111.732,111.733z"/> </g> </g> <g> <g> <path d="M244.463,22.502c-30.598,11.977-60.038,28.728-87.995,50.016v261.473L274.579,215.88V12.36 C264.433,15.244,254.385,18.619,244.463,22.502z"/> </g> </g> <g> <g> <path d="M147.545,385.998v-0.001L40.318,493.225c17.628,6.633,56.932,18.774,108.471,18.776c0.005,0,0.006,0,0.011,0 c40.643,0,80.595-7.571,118.74-22.501c47.429-18.565,92.086-48.586,132.73-89.231c4.704-4.703,9.258-9.462,13.676-14.272H147.545z "/> </g> </g> <g> <g> <path d="M363.213,0c-19.594,0-39.023,1.777-58.169,5.271v180.144l166.64-166.64C454.056,12.142,414.752,0,363.213,0z"/> </g> </g> <g> <g> <path d="M493.225,40.317l-166.64,166.64h180.144c3.498-19.166,5.275-38.616,5.271-58.23 C511.99,97.215,499.856,57.936,493.225,40.317z"/> </g> </g> <g> <g> <path d="M296.121,237.421L178.01,355.532h261.473c21.296-27.967,38.051-57.42,50.029-88.03 c3.878-9.911,7.247-19.945,10.128-30.081H296.121z"/> </g> </g> </g>
</svg>